<svg width="711" height="458" viewBox="0 0 711 458" fill="none" xmlns="http://www.w3.org/2000/svg">
<rect width="711" height="458" fill="#F1FAEE"/>
<rect width="711" height="458" fill="white"/>
<path d="M521.54 29H355.5H189.46V356.54L355.5 429L521.54 356.54V158.246V29Z" fill="#272932"/>
<path d="M355.5 29H521.54M521.54 29V158.246V356.54L355.5 429L189.46 356.54V29H521.54Z" stroke="#494949" stroke-width="0.678627"/>
<path d="M354.96 51H210.46V336.049L354.96 399.108L499.46 336.049V222.409L455.225 242.068V306.535L354.96 350.903L254.694 306.535V99.2051H354.96H455.225V163.479H499.46V51H354.96Z" fill="#F1FAEE"/>
<path d="M354.96 341.262L263.541 300.633V246L354.96 286.63L395.089 268.795L440.823 303.102L354.96 341.262Z" fill="#F1FAEE"/>
<path d="M272.388 108.846H446.378V163.479H345.218L272.388 108.846Z" fill="#F1FAEE"/>
<path d="M263.541 163.479V108.846L336.371 163.479L446.378 246V300.633L400.644 266.326L263.541 163.479Z" fill="#F1FAEE"/>
<path d="M354.96 51H210.46V336.049L354.96 399.108L499.46 336.049V222.409L455.225 242.068V306.535L354.96 350.903L254.694 306.535V99.2051H354.96H455.225V163.479H499.46V51H354.96Z" stroke="#494949" stroke-width="0.59059"/>
<path d="M354.96 341.262L263.541 300.633V246L354.96 286.63L395.089 268.795L440.823 303.102L354.96 341.262Z" stroke="#494949" stroke-width="0.59059"/>
<path d="M272.388 108.846H446.378V163.479H345.218L272.388 108.846Z" stroke="#494949" stroke-width="0.59059"/>
<path d="M263.541 163.479V108.846L336.371 163.479L446.378 246V300.633L400.644 266.326L263.541 163.479Z" stroke="#494949" stroke-width="0.59059"/>
</svg>
